<svg width="146" height="552" viewBox="0 0 146 552" fill="none" xmlns="http://www.w3.org/2000/svg">
<path d="M97.7797 238.734C102.306 235.486 103.438 231.014 100.304 228.765C97.1697 226.516 90.9383 227.329 86.4125 230.576C82.1316 233.648 80.8892 237.814 83.4194 240.16L77.5121 244.399L76.3165 243.541L48.0843 263.8L51.4809 266.238L79.7133 245.978L78.5178 245.12L84.4252 240.881C87.6934 242.697 93.4988 241.805 97.7797 238.734ZM77.6176 246.039L51.5658 264.734L50.1805 263.74L76.2323 245.045L77.6176 246.039ZM84.9784 239.762C82.3991 237.912 83.4938 234.114 87.4185 231.298C91.3431 228.482 96.6346 227.696 99.2139 229.547C101.793 231.398 100.699 235.195 96.7741 238.012C92.8495 240.828 87.5579 241.614 84.9784 239.762Z" fill="white"/>
<path d="M60.0731 230.573C55.5535 227.321 49.3307 226.508 46.2011 228.76C43.0714 231.012 44.2021 235.489 48.7217 238.742C52.9966 241.818 58.794 242.711 62.0576 240.892L67.9567 245.137L66.7628 245.997L94.9559 266.284L98.3478 263.843L70.1545 243.556L68.9607 244.415L63.0616 240.17C65.5885 237.821 64.3481 233.65 60.0731 230.573ZM70.2391 245.062L96.2549 263.782L94.8715 264.778L68.8558 246.057L70.2391 245.062ZM61.505 239.772C58.9293 241.626 53.6452 240.839 49.726 238.019C45.8068 235.199 44.7136 231.396 47.2893 229.543C49.8652 227.689 55.1494 228.476 59.0686 231.296C62.9878 234.116 64.0809 237.919 61.505 239.772Z" fill="white"/>
<path d="M72.1032 0.12207C71.7454 0.12207 71.3429 0.784302 70.8957 2.1088C70.7168 2.55029 70.4995 2.99179 70.244 3.43329C69.9884 3.87479 69.7009 4.09555 69.3814 4.09555L67.963 3.43329C67.733 2.99179 67.4072 2.77106 66.9855 2.77106C66.9599 2.77106 66.9471 4.09555 66.9471 6.74454C66.9471 9.39352 66.9599 10.718 66.9855 10.718C67.3816 10.718 67.6691 11.8217 67.848 14.0292C68.0269 16.2368 68.1483 20.431 68.2122 26.6119C68.2889 33.2344 68.3208 43.1681 68.308 56.4131V363.033C68.2825 376.278 68.2314 385.991 68.1547 392.172C68.0908 398.353 67.9694 402.548 67.7905 404.755C67.6116 407.404 67.3433 408.729 66.9855 408.729C66.9599 408.729 66.9471 410.053 66.9471 412.702C66.9471 415.351 66.9599 416.675 66.9855 416.675L67.963 416.013C68.5253 415.13 68.9853 414.689 69.3431 414.689C69.7648 414.689 70.1865 415.351 70.6082 416.675C71.1449 417.558 71.541 418 71.7966 418C73.1383 418 74.3267 409.391 75.3617 392.172C76.3968 375.395 77.2018 351.775 77.7769 321.312C78.3519 290.849 78.6394 255.97 78.6394 216.677C78.6394 174.293 78.3327 136.545 77.7194 103.433C77.1188 70.7617 76.3201 45.3756 75.3234 27.2742C74.3267 9.17276 73.2533 0.12207 72.1032 0.12207ZM71.9307 13.367C72.8252 13.367 73.6047 20.6517 74.2692 35.2212C74.9337 50.2321 75.4448 71.8655 75.8026 100.121C76.1732 128.377 76.3585 162.373 76.3585 202.107C76.3585 236.103 76.1987 268.332 75.8793 298.796C75.5598 329.7 75.0487 355.087 74.3459 374.954C73.6558 394.821 72.7741 404.755 71.7007 404.755C71.1896 404.755 70.8446 401.444 70.6657 394.821C70.4868 388.64 70.3973 377.603 70.3973 361.709V63.6978C70.4101 45.5964 70.5187 32.5722 70.7232 24.6252C70.9404 17.1198 71.3429 13.367 71.9307 13.367Z" fill="#DCCA87"/>
<path d="M95.0939 88.9192C95.1257 89.4363 95.1599 89.5336 95.1967 89.2112C95.2335 88.8888 95.2667 88.2004 95.2962 87.1459C95.3294 86.4575 95.3381 85.984 95.3222 85.7255C94.9656 63.0092 94.6487 37.5595 94.3715 9.37634C94.3427 6.44824 94.3027 4.41336 94.2515 3.2717C94.2039 2.49606 94.125 2.59189 94.0146 3.55911L85.6282 77.0698C85.5792 77.4997 85.5655 78.8127 85.5871 81.0087C85.6087 83.2048 85.6378 84.1417 85.6746 83.8192C86.0425 80.5951 86.3151 79.1995 86.4925 79.6324C86.6821 79.9579 86.8267 82.4678 86.9261 87.1621C87.0378 91.749 87.1495 99.7156 87.2611 111.062L89.7613 365.26C89.8693 376.24 89.9179 384.561 89.907 390.223C89.8961 395.884 89.8138 400.382 89.6602 403.717C89.5101 407.418 89.2634 410.773 88.9201 413.782C88.8833 414.104 88.8696 415.417 88.879 417.721C88.9006 419.917 88.9236 420.907 88.9481 420.692L96.8748 351.212C96.9728 350.352 97.0057 348.275 96.9733 344.981L96.2972 272.188C96.2864 271.09 96.2443 270.863 96.1707 271.508C96.1094 272.045 96.0762 272.734 96.0712 273.573C96.0643 295.897 95.8426 315.333 95.4061 331.882C94.9854 348.689 94.4011 360.371 93.6532 366.927L93.3038 369.99C92.9237 373.321 92.6388 374.824 92.4492 374.499C92.2754 374.432 92.1424 372.417 92.0501 368.455C91.9579 364.493 91.8552 357.441 91.7422 347.3L90.6406 235.299L92.9395 215.149C93.5648 209.667 94.0569 208.931 94.416 212.94C94.7751 216.949 95.0266 226.274 95.1706 240.915C95.185 242.379 95.2351 242.735 95.3209 241.982C95.4068 241.23 95.4407 239.939 95.4227 238.109L95.1073 208.074C95.0518 203.789 94.9845 197.621 94.9053 189.568C94.7901 177.856 94.7098 169.018 94.6645 163.054L94.3912 133.245C94.3732 131.415 94.3275 130.823 94.2539 131.468C94.2171 131.79 94.1821 132.295 94.1489 132.984C94.1316 133.931 94.1266 134.77 94.1338 135.502C94.2886 151.241 94.2401 164.587 93.9882 175.541C93.7522 186.754 93.34 194.94 92.7515 200.098L90.4893 219.927L89.2689 95.8478C89.1249 81.2072 89.1049 71.046 89.2088 65.3641C89.325 59.5748 89.6283 54.5307 90.1187 50.2318L90.6337 45.718C91.4306 38.7324 92.2268 39.1091 93.022 46.8482C93.8209 54.9533 94.5116 68.977 95.0939 88.9192Z" fill="#DCCA87"/>
<path d="M102.323 291.017C102.301 290.633 102.311 289.546 102.352 287.755C102.394 285.963 102.425 285.259 102.447 285.643C102.78 291.591 103.039 295.162 103.224 296.355C103.409 297.548 103.572 296.439 103.711 293.027C103.862 289.806 104.044 283.569 104.258 274.314L109.056 66.9731C109.264 58.0167 109.389 50.969 109.432 45.83C109.475 40.691 109.438 36.0321 109.322 31.8533C109.213 27.3759 109.008 22.4511 108.707 17.0789C108.675 16.5033 108.68 15.3199 108.721 13.5286C108.762 11.7373 108.799 11.1295 108.832 11.7051L109.595 25.9671C110.054 35.0062 110.429 42.116 110.719 47.2963C111.01 52.4766 111.409 59.1811 111.917 67.4098L112.75 81.6396C112.771 82.0234 112.761 83.1109 112.72 84.9021C112.678 86.6934 112.647 87.3972 112.625 87.0135C112.292 81.0657 112.03 77.6444 111.838 76.7495C111.663 75.748 111.501 76.8574 111.351 80.0778C111.211 83.49 111.029 89.7276 110.804 98.7907L106.057 303.892C105.788 315.536 105.668 324.353 105.696 330.345C105.731 336.038 105.916 341.858 106.249 347.806L106.7 355.864C107.571 371.405 108.421 378.982 109.25 378.595C110.097 378.102 110.964 369.526 111.851 352.87C111.886 352.657 111.92 352.838 111.952 353.413C111.984 353.989 112.01 354.863 112.028 356.036C112.053 356.91 112.059 357.645 112.045 358.243C111.393 381.188 110.821 403.26 110.331 424.457C110.227 428.935 110.095 429.735 109.933 426.857L102.323 291.017Z" fill="#DCCA87"/>
<path d="M117.46 310.78C117.443 310.075 117.464 308.806 117.522 306.972C117.579 305.139 117.617 304.575 117.634 305.28C117.893 316.212 118.101 323.206 118.258 326.262C118.424 329.671 118.595 330.119 118.772 327.604C118.949 325.089 119.187 319.096 119.487 309.624L126.194 97.4126C126.474 88.5514 126.656 80.9239 126.741 74.5303C126.844 68.1837 126.861 61.7781 126.792 55.3134C126.733 48.5432 126.582 40.0449 126.34 29.8185C126.323 29.1132 126.339 27.6676 126.389 25.4816C126.447 23.6482 126.488 23.2605 126.513 24.3184L127.126 51.2243C127.475 67.3513 127.763 80.1754 127.989 89.6965C128.24 100.276 128.567 113.37 128.972 128.98L129.601 154.44C129.618 155.146 129.597 156.415 129.539 158.248C129.481 160.082 129.444 160.646 129.427 159.941C129.176 149.362 128.963 142.52 128.788 139.417C128.613 136.313 128.437 136.019 128.26 138.533C128.091 141.401 127.853 147.394 127.545 156.514L120.867 367.808C120.578 376.975 120.386 384.579 120.293 390.62C120.208 397.014 120.195 403.595 120.254 410.366C120.323 416.83 120.479 425.176 120.721 435.402C120.738 436.108 120.717 437.377 120.66 439.21C120.602 441.044 120.564 441.608 120.548 440.902C120.288 429.971 120.084 421.002 119.934 413.996L119.033 374.925L118.127 337.827C117.958 331.433 117.736 322.417 117.46 310.78Z" fill="#DCCA87"/>
<path d="M128.319 338.67C127.73 297.901 127.467 258.852 127.532 221.522C127.602 184.559 127.959 151.891 128.602 123.518C129.257 94.9767 130.131 72.8227 131.224 57.0558C132.281 41.792 133.356 36.9366 134.448 42.4894C135.551 47.8746 136.556 62.4548 137.461 86.2302C138.378 109.838 139.108 140.373 139.649 177.836C139.899 195.099 140.101 213.483 140.257 232.99C140.424 252.329 140.512 268.146 140.521 280.443C140.517 284.052 140.497 286.56 140.461 287.965C140.425 289.371 140.346 291.18 140.223 293.392L138.003 330.759C137.957 331.43 137.914 330.931 137.876 329.263C137.838 327.594 137.831 326.141 137.855 324.903C138.553 299.3 138.995 272.509 139.18 244.529C139.377 216.381 139.277 188.534 138.879 160.987C138.364 125.361 137.562 103.417 136.473 95.1576C135.396 86.73 134.172 92.4126 132.8 112.205C131.603 129.482 130.641 151.357 129.914 177.83C129.187 204.303 128.738 232.532 128.567 262.516C128.402 292.868 128.529 322.551 128.948 351.567C129.139 364.789 129.343 374.051 129.56 379.352C129.789 384.485 130.061 386.324 130.378 384.87C130.711 383.615 131.15 379.046 131.697 371.162C132.266 362.943 132.655 355.336 132.863 348.34C133.071 341.344 133.152 332.852 133.106 322.863C133.06 312.874 132.896 298.146 132.615 278.68C132.583 276.477 132.613 274.704 132.706 273.362C132.741 272.859 132.773 272.623 132.801 272.655C132.847 272.886 132.875 273.369 132.886 274.104C133.268 305.427 133.605 331.189 133.897 351.39C134.173 370.489 134.477 390.071 134.81 410.135C134.831 411.604 134.803 413.11 134.727 414.651C134.651 416.193 134.603 416.229 134.581 414.76C134.508 408.715 134.408 405.713 134.283 405.754C134.157 405.794 133.908 408.498 133.536 413.866L132.35 430.975C131.827 438.523 131.469 444.357 131.276 448.478C131.082 452.599 130.945 455.247 130.864 456.421C130.794 457.427 130.742 457.731 130.708 457.332C130.68 457.3 130.638 456.35 130.583 454.482C129.578 412.166 128.823 373.562 128.319 338.67Z" fill="#DCCA87"/>
<path d="M134.145 474.136C134.148 474.893 134.112 475.436 134.036 475.762C133.96 476.089 133.92 475.874 133.917 475.116C133.866 464.509 133.83 455.769 133.81 448.896L133.625 406.196L133.409 365.365C133.362 358.222 133.309 348.4 133.249 335.898C133.245 335.141 133.28 334.409 133.354 333.703C133.43 333.377 133.471 333.782 133.476 334.918C133.533 346.662 133.604 354.859 133.691 359.512C133.78 364.543 133.916 367.435 134.101 368.188C134.285 368.941 134.573 368.473 134.965 366.784L139.329 347.993L138.543 184.341L134.18 203.132C133.8 204.766 133.527 206.912 133.359 209.568C133.192 212.604 133.084 216.937 133.034 222.567C132.996 228.143 133.004 236.613 133.059 247.978C133.064 249.114 133.029 249.846 132.953 250.173C132.877 250.5 132.837 250.095 132.831 248.958C132.771 236.457 132.731 226.77 132.711 219.897L132.528 177.765L132.321 138.639C132.274 131.496 132.222 122.052 132.166 110.309C132.16 109.172 132.195 108.441 132.271 108.114C132.347 107.787 132.388 108.192 132.393 109.328C132.448 120.693 132.519 128.702 132.605 133.354C132.694 138.385 132.831 141.277 133.015 142.03C133.201 143.162 133.49 142.883 133.882 141.195L142.667 103.368C143.2 101.459 143.537 97.688 143.677 92.0553C143.831 86.368 143.87 75.7585 143.796 60.2267C143.79 59.0903 143.825 58.3586 143.901 58.0318C143.977 57.705 144.018 58.1099 144.023 59.2464L144.135 86.6034C144.19 103.381 144.242 116.883 144.291 127.111C144.34 137.34 144.419 151.112 144.528 168.429L144.686 197.328C144.69 198.085 144.654 198.627 144.578 198.954C144.502 199.281 144.462 199.066 144.459 198.308C144.404 186.943 144.326 178.773 144.225 173.796C144.123 168.819 143.973 165.792 143.774 164.715C143.59 163.962 143.307 164.214 142.926 165.469L139.075 182.054L139.857 345.137L143.709 328.552C144.253 326.21 144.601 322.196 144.755 316.508C144.91 311.2 144.95 300.78 144.876 285.248C144.872 284.49 144.907 283.759 144.982 283.053C145.057 282.726 145.098 283.131 145.104 284.268L145.218 312.193C145.273 328.97 145.326 342.662 145.377 353.269C145.426 363.498 145.503 376.891 145.608 393.451L145.766 422.349C145.772 423.485 145.737 424.217 145.661 424.544C145.585 424.871 145.544 424.466 145.539 423.329C145.484 411.965 145.406 403.794 145.305 398.817C145.218 394.165 145.081 391.273 144.895 390.141C144.709 389.01 144.425 388.882 144.041 389.758L135.257 427.586C134.89 429.165 134.618 431.5 134.439 434.59C134.274 438.004 134.168 442.716 134.119 448.725C134.083 454.68 134.092 463.15 134.145 474.136Z" fill="#DCCA87"/>
<path d="M133.368 447.758C133.374 449.202 133.414 449.716 133.49 449.301C133.566 448.886 133.602 448.197 133.599 447.234C133.522 427.016 133.499 412.161 133.527 402.669C133.554 392.696 133.65 385.54 133.814 381.201C133.991 376.794 134.269 373.552 134.649 371.475L143.433 323.408C143.874 320.505 144.173 321.079 144.33 325.131C144.5 329.115 144.611 337.845 144.662 351.324L144.697 360.71C144.759 377.077 144.681 393.964 144.462 411.372C144.257 428.711 143.947 444.162 143.534 457.725C143.133 471.219 142.671 480.623 142.149 485.936C142.124 486.075 142.116 487.347 142.125 489.754C142.13 491.198 142.142 492.608 142.16 493.983C142.189 494.807 142.209 494.944 142.22 494.393C142.691 489.357 143.936 478.86 145.954 462.903C145.992 462.696 146.007 461.388 145.998 458.981C145.992 457.537 145.981 456.368 145.965 455.475C145.947 454.1 145.925 453.482 145.9 453.62C145.634 455.074 145.461 444.97 145.379 423.308C145.194 384.524 144.99 335.769 144.768 277.042C144.668 250.566 144.569 220.893 144.471 188.021L144.299 137.373C144.239 121.488 144.227 109.762 144.263 102.195C144.299 94.6288 144.408 89.3637 144.59 86.4C144.624 85.2297 144.631 83.4757 144.609 81.138C144.598 78.2498 144.568 77.1848 144.519 77.943C143.968 82.4324 143.272 87.7177 142.43 93.7989C141.601 99.8109 141.04 103.372 140.747 104.483C140.709 104.69 140.695 106.238 140.706 109.126C140.721 112.977 140.753 114.764 140.804 114.488C141.323 111.65 141.82 113.593 142.298 120.317C142.773 126.559 143.174 136.896 143.499 151.328C143.823 165.278 144.02 181.4 144.089 199.692L144.124 209.078C144.161 218.706 144.155 225.859 144.108 230.537C144.06 234.734 143.961 237.729 143.813 239.523C143.678 241.247 143.44 243.284 143.1 245.634L134.351 292.771C133.959 294.917 133.669 295.03 133.481 293.11C133.291 290.71 133.148 285.109 133.05 276.309C132.952 267.509 132.864 252.76 132.786 232.061C132.78 230.617 132.74 230.102 132.664 230.518C132.588 230.933 132.553 231.863 132.558 233.307C132.625 251.117 132.685 265.043 132.735 275.082L133.003 340.686L133.218 402.886C133.246 413.546 133.296 428.503 133.368 447.758Z" fill="#DCCA87"/>
<path d="M120.009 111.761C120.026 111.056 120.064 111.62 120.121 113.455C120.179 115.289 120.2 116.559 120.183 117.265C119.924 128.204 119.764 136.732 119.703 142.848C119.635 149.317 119.647 155.574 119.74 161.619C119.834 167.664 120.03 175.426 120.329 184.904L127.036 397.257C127.316 406.124 127.549 411.64 127.734 413.803C127.921 416.625 128.097 416.331 128.263 412.919C128.438 409.814 128.647 403.144 128.889 392.911C128.906 392.205 128.948 392.593 129.014 394.075C129.072 395.91 129.088 397.356 129.063 398.415L128.421 424.421C128.033 439.336 127.727 451.557 127.501 461.085C127.25 471.671 126.941 485.386 126.576 502.229L125.975 528.624C125.959 529.33 125.921 528.765 125.863 526.931C125.805 525.096 125.785 523.826 125.801 523.12C126.052 512.534 126.208 503.854 126.267 497.079C126.326 490.304 126.309 483.894 126.216 477.849C126.114 472.157 125.918 464.395 125.626 454.564L118.949 243.128C118.659 233.955 118.425 228.11 118.248 225.594C118.063 223.431 117.883 223.902 117.708 227.007C117.542 230.419 117.338 237.241 117.095 247.474C117.079 248.18 117.041 247.616 116.983 245.781C116.926 243.946 116.905 242.676 116.922 241.97C117.181 231.031 117.395 222.363 117.564 215.964L118.495 177.783L119.371 139.744C119.521 132.734 119.733 123.406 120.009 111.761Z" fill="#DCCA87"/>
<path d="M106.302 540.988C106.269 541.497 106.233 540.96 106.191 539.379C106.15 537.797 106.145 536.753 106.177 536.244C106.618 529.3 106.881 519.935 106.967 508.152C107.043 496.537 106.92 484.32 106.599 471.5L101.268 267.247C101.237 266.626 101.246 265.543 101.297 264C101.33 262.362 101.384 260.951 101.459 259.765C101.567 258.071 101.657 257.761 101.731 258.834L113.938 360.329L109.799 201.541C109.478 188.721 109.086 180.738 108.624 177.593C108.162 174.448 107.705 176.432 107.254 183.546C107.211 184.224 107.169 183.772 107.127 182.19C107.086 180.609 107.086 179.48 107.129 178.802C107.43 174.059 107.665 170.549 107.833 168.272L108.859 152.661L109.816 137.021C109.992 133.878 110.247 129.681 110.58 124.43C110.623 123.753 110.665 124.205 110.707 125.786C110.748 127.367 110.747 128.497 110.704 129.174C110.253 136.289 109.995 145.568 109.93 157.013C109.855 168.627 109.978 180.845 110.299 193.665L114.832 367.476C115.365 370.998 115.8 372.524 116.137 372.055C116.463 371.755 116.755 369.572 117.013 365.507C117.035 365.168 117.066 365.79 117.107 367.371C117.149 368.952 117.159 369.912 117.137 370.251L116.256 383.576C116.077 386.022 115.843 389.532 115.553 394.106C115.262 398.679 115.024 402.622 114.837 405.934C114.64 409.416 114.509 411.665 114.445 412.681C114.359 414.036 114.28 414.526 114.21 414.149C114.128 413.942 114.017 412.896 113.877 411.014C113.623 408.302 113.38 405.986 113.148 404.065L103.467 324.207L107.083 463.877C107.404 476.698 107.795 484.681 108.257 487.826C108.709 491.141 109.166 489.156 109.628 481.873C109.671 481.195 109.713 481.647 109.755 483.228C109.796 484.81 109.795 485.939 109.752 486.617L109.113 496.13C108.669 502.378 108.302 507.789 108.012 512.363C107.786 515.92 107.476 521.18 107.081 528.144L106.302 540.988Z" fill="#DCCA87"/>
<path d="M68.2344 445.656C68.2089 444.764 68.1769 444.318 68.1386 444.318C68.1003 444.318 68.0619 444.764 68.0236 445.656C67.9853 446.102 67.9725 446.547 67.9853 446.993C68.113 475.974 68.1769 507.63 68.1769 541.961C68.1769 545.528 68.1961 548.203 68.2344 549.987C68.2728 551.324 68.3494 551.993 68.4644 551.993H77.2048C77.2559 551.993 77.2815 550.656 77.2815 547.98C77.2815 545.305 77.2623 543.968 77.224 543.968C76.8406 543.968 76.5659 542.853 76.3998 540.624C76.2209 538.394 76.1059 534.159 76.0548 527.917C75.9909 521.675 75.9589 511.643 75.9589 497.821V188.172C75.9589 174.796 75.9909 164.987 76.0548 158.745C76.1187 152.503 76.2401 148.267 76.419 146.038C76.5979 143.363 76.8662 142.025 77.224 142.025C77.2623 142.025 77.2879 140.688 77.3007 138.013C77.3007 135.338 77.2879 134 77.2623 134H69.0011C68.8989 134 68.8478 136.006 68.8478 140.019L68.8095 228.299C68.8095 229.637 68.8478 230.306 68.9245 230.306C68.9884 230.306 69.0267 229.86 69.0395 228.968C69.2567 204 69.6528 184.382 70.2279 170.115C70.7901 155.401 71.461 148.045 72.2404 148.045H72.6046C73.0008 148.045 73.2883 149.159 73.4672 151.388C73.6333 153.172 73.7419 156.739 73.793 162.089C73.8441 167.439 73.8761 176.357 73.8888 188.841V325.274H71.4929C70.8412 325.274 70.362 321.261 70.0553 313.235C69.7487 305.21 69.5953 292.28 69.5953 274.446C69.5953 272.662 69.5506 271.771 69.4612 271.771C69.3717 271.771 69.327 272.885 69.327 275.114L69.3462 311.898C69.3589 317.248 69.3653 324.828 69.3653 334.637C69.3653 348.904 69.3589 359.605 69.3462 366.739L69.327 402.853C69.327 405.082 69.3653 406.197 69.442 406.197C69.4803 406.197 69.5187 405.974 69.557 405.528C69.5826 404.637 69.5953 403.745 69.5953 402.853C69.5953 383.681 69.7678 369.191 70.1129 359.382C70.4451 349.127 70.9179 344 71.5312 344H73.8888V495.146C73.8888 512.98 73.8122 524.573 73.6588 529.923C73.4927 535.273 73.1541 537.949 72.643 537.949H72.1063C71.2757 537.949 70.5154 529.7 69.8253 513.203C69.1353 496.261 68.605 473.745 68.2344 445.656Z" fill="#DCCA87"/>
<path d="M45.7496 438.053C45.6883 437.495 45.6685 436.075 45.6901 433.795C45.7117 431.514 45.7531 430.653 45.8144 431.211C46.2681 435.341 46.7044 434.977 47.1233 430.12C47.5299 425.151 47.9974 411.653 48.5256 389.625L54.747 133.512C54.8018 131.946 54.9027 131.833 55.0498 133.172C55.1111 133.73 55.1688 134.668 55.223 135.987C55.2807 136.925 55.312 137.83 55.3171 138.702L56.975 488.833C57.0517 506.045 57.1673 518.451 57.3217 526.05C57.4725 534.028 57.7196 539.58 58.0629 542.705C58.0997 543.04 58.1073 544.348 58.0857 546.628C58.0641 548.909 58.041 549.937 58.0165 549.714L57.0472 540.271C56.613 535.493 56.2917 532.156 56.0832 530.259C55.6173 526.018 55.0865 521.599 54.4908 517.002L53.5842 509.369C53.5229 508.811 53.5031 507.392 53.5247 505.111C53.5463 502.83 53.5877 501.969 53.649 502.527C54.3356 508.777 54.7347 506.011 54.8463 494.228C54.8859 490.047 54.8909 483.899 54.8612 475.784L53.6339 208.843L49.1531 397.195C48.9758 404.664 48.8584 411.44 48.8008 417.521C48.6892 429.304 48.7438 439.71 48.9646 448.738C49.1818 458.147 49.5233 464.972 49.9892 469.213C50.0383 469.659 50.052 471.023 50.0304 473.303C50.0088 475.584 49.9735 476.501 49.9244 476.055L48.9919 466.947C48.4596 461.276 47.9728 456.431 47.5314 452.414C47.2862 450.182 46.976 447.771 46.601 445.183L45.7496 438.053Z" fill="#DCCA87"/>
<path d="M34.4171 470.506C34.3818 470.291 34.348 470.473 34.3158 471.053C34.2835 471.632 34.2582 472.512 34.2398 473.693C34.2144 474.573 34.2106 475.067 34.2282 475.174C34.7848 492.778 35.329 513.151 35.861 536.293C35.9163 538.698 35.9738 540.211 36.0337 540.834C36.0867 541.156 36.1616 540.448 36.2583 538.71L43.6112 406.595C43.6542 405.823 43.655 404.535 43.6135 402.731C43.5721 400.928 43.5352 400.316 43.503 400.896C43.1805 406.69 42.9321 410.091 42.7578 411.1C42.5728 412.301 42.4104 411.184 42.2707 407.749C42.1202 404.507 41.9379 398.228 41.7237 388.911L36.9257 180.18C36.7185 171.164 36.5934 164.069 36.5504 158.896C36.5074 153.722 36.5439 149.032 36.6599 144.825C36.7689 140.318 36.974 135.36 37.275 129.952C37.3072 129.372 37.308 128.085 37.2773 126.088C37.2358 124.285 37.2043 123.576 37.1828 123.963L30.2331 248.834C30.1471 250.379 30.1352 252.504 30.1973 255.209L31.533 315.297C31.5537 316.199 31.5963 316.07 31.6608 314.911C31.7146 313.946 31.7399 313.066 31.7368 312.271C31.5327 292.157 31.562 272.945 31.8246 254.636C32.0697 236.219 32.52 221.12 33.1758 209.338L33.4821 203.833C33.8154 197.845 34.0745 194.251 34.2596 193.05C34.427 191.741 34.5736 192.503 34.6995 195.337C34.8254 198.171 34.9904 203.699 35.1946 211.922L37.3086 303.889L35.293 340.105C34.7448 349.955 34.2795 354.494 33.8972 353.719C33.5148 352.945 33.1855 346.547 32.9091 334.525C32.8815 333.323 32.83 333.398 32.7548 334.75C32.6795 336.102 32.6592 337.529 32.6937 339.032L33.2798 363.538C33.3735 366.951 33.4963 371.964 33.6483 378.576C33.8693 388.193 34.0298 395.503 34.1296 400.505L34.673 425.139C34.7076 426.642 34.7571 426.814 34.8216 425.655C34.8538 425.075 34.8826 424.346 34.908 423.466C34.9157 422.478 34.9126 421.684 34.8988 421.083C34.6017 408.159 34.5223 395.784 34.6606 383.957C34.7812 372.022 35.0995 361.42 35.6154 352.148L37.5988 316.512L39.9408 418.398C40.2171 430.42 40.3322 439.393 40.2861 445.317C40.2293 451.435 39.9859 458.356 39.5559 466.082L39.1044 474.195C38.4057 486.75 37.6382 492.682 36.8021 491.992C35.9591 491.001 35.1641 483.839 34.4171 470.506Z" fill="#DCCA87"/>
<path d="M22.115 114.922C22.0899 114.222 22.1064 113.265 22.1643 112.051C22.2139 110.604 22.2554 110.348 22.2889 111.281L24.3474 168.702C24.5482 174.304 24.5134 192.197 24.2429 222.383C23.9544 252.537 23.3793 293.801 22.5178 346.173C22.8197 351.293 23.1129 357.821 23.3974 365.757C23.4393 366.924 23.484 368.644 23.5316 370.916L26.9648 299.013C27.2532 293.381 27.4489 288.465 27.5519 284.264C27.6369 280.032 27.6498 275.675 27.5906 271.194C27.5134 266.681 27.3492 260.924 27.0982 253.921C27.0647 252.988 27.077 251.914 27.1349 250.7C27.1845 249.253 27.226 248.997 27.2595 249.931C27.544 257.867 27.7567 264.037 27.8977 268.44L28.8121 294.653L29.7679 320.609C29.945 325.075 30.1757 331.276 30.4602 339.212C30.4937 340.146 30.4857 341.336 30.4361 342.783C30.3781 343.997 30.3324 344.137 30.299 343.203C30.0228 335.5 29.7937 330.287 29.6115 327.564C29.4196 325.043 29.2352 324.614 29.0582 326.279C28.8631 327.912 28.6214 331.545 28.3329 337.177L21.626 477.644C21.3363 483.712 21.1489 488.862 21.0639 493.094C20.9706 497.092 20.9625 501.348 21.0397 505.861C21.1073 510.575 21.2708 516.551 21.5302 523.786C21.5637 524.72 21.5515 525.794 21.4935 527.007C21.4356 528.221 21.3899 528.361 21.3564 527.427L20.7056 508.567C20.3567 497.892 20.0652 489.287 19.8308 482.751C19.5463 474.815 19.2174 466.583 18.8441 458.056C18.557 450.991 18.3716 446.291 18.2879 443.957C17.4427 420.382 16.9703 399.422 16.8706 381.077C16.7625 362.498 16.9933 347.242 17.5631 335.309C17.9784 326.612 18.5005 321.603 19.1294 320.282C19.75 318.727 20.3874 320.705 21.0414 326.214C21.6345 281.917 22.0624 245.982 22.3252 218.411C22.5699 190.808 22.6801 168.885 22.6557 152.64C22.6132 136.364 22.433 123.792 22.115 114.922ZM23.126 379.41C23.0546 376.003 22.9477 372.315 22.8055 368.347C22.2532 352.941 21.724 345.02 21.218 344.583C20.7037 343.913 20.1182 350.454 19.4615 364.208C18.7758 378.568 18.3908 392.353 18.3064 405.563C18.204 418.742 18.3201 430 18.6549 439.337C18.8808 445.639 19.0549 449.553 19.1772 451.078C19.2899 452.805 19.4257 452.821 19.5847 451.125C19.7257 449.399 19.9597 445.315 20.2868 438.874L23.126 379.41Z" fill="#DCCA87"/>
<path d="M4.22094 434.9C4.19439 436.81 4.21599 438.289 4.28574 439.336C4.35548 440.383 4.40362 439.951 4.43016 438.041C4.61595 424.669 4.9507 414.226 5.4344 406.711C5.90117 399.404 6.5423 394.714 7.35778 392.641L11.4667 385.059L15.5292 446.039C15.8895 451.447 16.1378 456.328 16.274 460.681C16.4049 465.416 16.4569 471.276 16.4301 478.261C16.4033 485.246 16.2943 495.616 16.1032 509.37C16.082 510.898 16.1062 512.185 16.176 513.232C16.2457 514.279 16.2912 514.038 16.3124 512.51C16.4982 499.139 16.6357 488.736 16.725 481.303L17.3366 435.768L18.0149 388.465C18.1327 380.998 18.2818 370.77 18.4623 357.78C18.4835 356.252 18.4593 354.965 18.3895 353.918C18.3198 352.871 18.2743 353.112 18.2531 354.64C18.062 368.394 17.8922 378.082 17.7439 383.704C17.5839 389.152 17.4066 391.801 17.212 391.651C17.0121 391.882 16.7405 389.19 16.3971 383.574L12.5867 325.685L9.63339 171.232C9.33071 155.607 9.13897 142.109 9.05815 130.738C8.97202 119.749 8.98735 110.052 9.10413 101.647C9.12537 100.118 9.10111 98.831 9.03137 97.7841C8.96694 96.3552 8.92676 96.2138 8.91083 97.36L8.51422 127.421C8.33575 142.288 8.19874 153.16 8.10319 160.037C7.97048 169.588 7.7598 183.741 7.47114 202.494L7.04761 231.459C7.03169 232.605 7.04697 233.527 7.09347 234.225C7.12834 234.749 7.16852 234.89 7.21401 234.649C7.24256 234.616 7.26215 234.218 7.27276 233.453C7.41078 223.52 7.53488 216.61 7.64508 212.724C7.74997 209.219 7.85471 208.252 7.95933 209.822C8.06394 211.392 8.17107 215.309 8.28072 221.572L11.0965 367.727L7.15734 373.703C6.87709 373.652 6.64398 372.23 6.458 369.439C6.19066 365.426 6.01809 359.141 5.94029 350.586C5.85718 342.413 5.8926 332.786 6.04654 321.707C6.06778 320.179 6.04352 318.891 5.97378 317.844C5.90404 316.797 5.86121 316.847 5.84528 317.993L5.43274 349.201C5.19057 368.652 4.99783 383.536 4.8545 393.851C4.76426 400.346 4.64912 407.621 4.50909 415.677L4.22094 434.9Z" fill="#DCCA87"/>
<path d="M6.08512 347.581C6.36618 391.074 6.84399 424.371 7.51856 447.473C8.18048 470.649 8.94148 479.693 9.80157 474.605C10.4593 470.714 11.0256 459.129 11.5004 439.851C11.9753 420.573 12.3217 395.946 12.5397 365.97C12.7451 336.068 12.7868 303.681 12.665 268.809C12.6141 254.236 12.5369 237.693 12.4335 219.18C12.3954 211.969 12.3509 202.935 12.3001 192.08C12.251 181.745 12.2038 170.072 12.1583 157.06L11.9809 100.736C11.959 90.7724 11.9171 76.9424 11.8553 59.2462C11.8517 58.2052 11.8119 57.9093 11.736 58.3582C11.6601 58.8073 11.624 59.5522 11.6276 60.5932C11.6804 75.687 11.6878 87.0643 11.6501 94.7251C11.6015 102.981 11.4941 109.195 11.3279 113.365C11.1617 117.536 10.8889 120.743 10.5095 122.988L1.72524 174.96C1.35844 177.13 1.08104 177.178 0.893055 175.103C0.694237 173.623 0.549569 169.166 0.459049 161.733C0.3577 154.896 0.280656 143.93 0.227918 128.836C0.224281 127.795 0.184518 127.499 0.108628 127.948C0.0327386 128.397 -0.00338759 129.142 0.000249511 130.183L0.163796 171.449C0.269109 194.2 0.346316 212.602 0.395417 226.655C0.446336 241.228 0.480102 256.434 0.496714 272.273C0.50225 277.553 0.51688 285.435 0.540603 295.919C0.564326 306.403 0.589827 315.549 0.617105 323.356C0.788049 372.281 1.12859 408.781 1.63873 432.855C2.15069 457.451 2.80509 467.391 3.60193 462.677C4.20905 459.085 4.73015 447.502 5.16524 427.928C5.60033 408.354 5.90696 381.572 6.08512 347.581ZM0.955636 309.4C0.902898 294.307 0.955065 283.373 1.11214 276.6C1.26921 269.827 1.58806 265.019 2.0687 262.176L5.67346 240.848L5.80428 272.745C5.90248 300.851 5.73131 323.91 5.29076 341.922C4.83939 360.53 4.23425 372.079 3.47535 376.569C2.7544 380.834 2.17965 377.063 1.7511 365.255C1.31172 354.042 1.04656 335.424 0.955636 309.4ZM12.2012 258.007C12.3303 294.96 12.2035 323.335 11.8209 343.13C11.4382 362.925 10.8105 375.404 9.93775 380.567C8.96383 386.329 8.15773 381.005 7.51945 364.595C6.88118 348.184 6.4902 319.42 6.34654 278.302C6.2938 263.208 6.25917 249.601 6.24264 237.481L10.815 210.428C11.2577 207.809 11.5794 209.359 11.7801 215.077C11.9808 220.796 12.1212 235.106 12.2012 258.007Z" fill="#DCCA87"/>
<path d="M16.6115 455.817C16.6009 456.861 16.5607 456.668 16.491 455.238C16.4212 453.808 16.3917 452.571 16.4023 451.527C16.5668 435.349 16.6546 423.273 16.6655 415.297C16.6817 406.799 16.6217 399.578 16.4855 393.632C16.3493 387.686 16.101 381.019 15.7407 373.631L7.66812 208.114C7.33103 201.203 7.0652 197.645 6.87062 197.439C6.66972 196.474 6.50306 199.048 6.37062 205.162C6.22657 211.038 6.07757 221.543 5.92363 236.677C5.91301 237.721 5.87018 237.789 5.79513 236.881C5.72538 235.451 5.69848 233.953 5.7144 232.387L6.12996 193.606C6.38677 171.12 6.58684 152.833 6.73017 138.743C6.88942 123.087 7.07951 103.018 7.30044 78.5358L7.67317 39.8217C7.68379 38.778 7.72397 38.9711 7.79371 40.401C7.86345 41.831 7.89301 43.0678 7.88239 44.1115C7.72314 59.7673 7.64123 71.9632 7.63666 80.6991C7.63208 89.4351 7.69789 96.776 7.83408 102.722C7.97558 108.146 8.22384 114.813 8.57886 122.723L16.6166 287.524C16.9653 294.674 17.2343 298.613 17.4235 299.34C17.6181 299.545 17.7874 296.71 17.9315 290.834C18.0639 284.719 18.2071 274.095 18.3611 258.961C18.3717 257.918 18.4119 258.111 18.4816 259.541C18.5513 260.971 18.5809 262.207 18.5703 263.251C18.4057 279.429 18.2672 292.356 18.1547 302.033L17.556 358.819L17.0081 414.755C16.9189 424.908 16.7867 438.596 16.6115 455.817Z" fill="#DCCA87"/>
<path d="M24.9744 22.6606C24.9493 21.8111 24.9078 22.1224 24.8498 23.5945C24.7919 25.0667 24.7713 26.0859 24.788 26.6522C25.1395 38.5446 25.3706 47.7942 25.4813 54.4008C25.6003 61.2906 25.6216 67.4441 25.5449 72.8611C25.4587 78.5234 25.2707 85.0349 24.9809 92.3955L18.274 262.793C17.9443 271.664 17.6846 276.033 17.4947 275.9C17.2951 276.013 17.0782 272.105 16.8438 264.177L16.6807 258.655C16.3962 249.028 16.2221 236.844 16.1584 222.102C16.085 207.605 16.126 192.685 16.2812 177.339C16.4267 162.239 16.6813 148.829 17.0451 137.109C17.0644 136.618 17.0532 135.665 17.0113 134.249C16.9862 133.399 16.9563 132.673 16.9215 132.069C16.8855 131.993 16.8668 132.219 16.8655 132.748C16.5404 143.487 15.6422 170.023 14.1711 212.357C14.1421 213.093 14.1486 214.169 14.1904 215.585C14.2155 216.434 14.2413 217.019 14.2676 217.34C14.3024 217.944 14.3294 218.001 14.3488 217.51C14.5516 212.358 14.8412 216.153 15.2178 228.895C15.9246 251.094 16.7884 279.466 17.8093 314.01C18.2696 329.584 18.7746 347.243 19.3243 366.988L20.1884 397.087C20.4646 406.431 20.6413 413.84 20.7185 419.315C20.7957 424.789 20.7787 429.932 20.6673 434.745C20.655 436.047 20.6747 437.284 20.7262 438.454C20.7764 440.153 20.8166 440.37 20.8469 439.106C21.2467 427.461 21.7576 412.994 22.3795 395.706C22.9918 378.663 23.4131 367.462 23.6436 362.102C23.6726 361.366 23.662 360.148 23.6118 358.449C23.5448 356.184 23.492 355.542 23.4534 356.524C23.0575 366.583 22.611 373.217 22.114 376.424C21.6254 379.915 21.1416 379.564 20.6626 375.373C20.1921 371.464 19.7978 364.13 19.4798 353.37L19.3166 347.849C19.1492 342.186 19.0521 337.466 19.025 333.691C19.0064 330.199 19.0466 326.698 19.1458 323.188C19.2353 319.922 19.4062 314.836 19.6586 307.928L26.3491 138.691C26.6485 131.085 26.8909 126.414 27.0763 124.678C27.2701 123.225 27.4706 124.575 27.6779 128.728C27.8852 132.882 28.1687 141.046 28.5285 153.222C28.5536 154.071 28.5952 153.76 28.6531 152.288C28.711 150.815 28.7275 149.655 28.7024 148.805C28.3927 138.329 28.1452 130.24 27.9599 124.539L26.8031 86.2566L25.7381 49.3618C25.5637 42.8871 25.3091 33.9867 24.9744 22.6606Z" fill="#DCCA87"/>
<path d="M42.0237 224.102C42.0314 225.115 42.0514 225.918 42.0836 226.512C42.1159 227.107 42.155 227.393 42.2011 227.371C42.2403 227.657 42.2579 227.547 42.2541 227.04C42.5956 205.022 43.0324 182.144 43.5644 158.407C43.6196 155.941 43.645 153.794 43.6403 151.967C43.6288 150.448 43.5747 148.797 43.4779 147.014L36.125 11.5045C36.082 10.712 36.0398 11.2406 35.9983 13.0902C35.9569 14.9398 35.9523 16.1618 35.9845 16.7561C36.307 22.6995 36.5209 27.7296 36.6261 31.8464C36.742 36.1614 36.7732 40.873 36.7194 45.9812C36.6765 51.2875 36.5479 58.7188 36.3337 68.2752L31.5358 282.368C31.3285 291.616 31.1496 297.903 30.9992 301.228C30.8487 304.553 30.6809 305.6 30.4959 304.368C30.304 303.444 30.0575 300.208 29.7565 294.661C29.7242 294.067 29.682 294.595 29.6298 296.247C29.5884 298.096 29.5784 299.219 29.5999 299.615L36.5497 427.695C36.6357 429.28 36.7098 428.685 36.7719 425.911L38.1721 365.468C38.1928 364.543 38.1709 363.486 38.1064 362.298C38.0527 361.307 38.0135 361.021 37.9889 361.44C37.4193 375.335 36.7821 382.757 36.0773 383.707C35.3763 385.163 34.6979 379.848 34.0422 367.763L33.7358 362.117C33.4026 355.976 33.178 350.747 33.062 346.432C32.9499 342.624 32.9138 338.474 32.9537 333.982C32.9936 329.49 33.1049 322.83 33.2876 314L35.4016 219.67L37.4172 256.816C37.9655 266.92 38.3064 277.123 38.44 287.427C38.5737 297.73 38.5023 309.047 38.226 321.378C38.1984 322.611 38.2222 323.921 38.2974 325.308C38.3727 326.695 38.4276 326.618 38.4621 325.076L39.0159 299.347C39.0881 295.449 39.2002 290.11 39.3521 283.328C39.5732 273.463 39.7444 266.164 39.8657 261.43L40.4414 236.757C40.4759 235.216 40.461 233.851 40.3965 232.662C40.3642 232.068 40.3285 231.627 40.2894 231.341C40.254 231.562 40.2295 231.98 40.2157 232.597C39.9186 245.852 39.5489 253.196 39.1067 254.629C38.6683 256.569 38.1911 252.784 37.6751 243.274L35.6918 206.722L38.0338 102.219C38.3101 89.8883 38.5542 83.062 38.7661 81.7401C38.9888 80.6163 39.3151 84.0167 39.7451 91.9412L40.1966 100.262C40.8953 113.139 41.4071 130.63 41.732 152.734C42.05 175.146 42.1472 198.936 42.0237 224.102Z" fill="#DCCA87"/>
</svg>
