<svg width="66" height="46" viewBox="0 0 66 46" fill="none" xmlns="http://www.w3.org/2000/svg">
<path d="M57.7797 14.7658C62.3055 11.5161 63.4377 7.0417 60.3037 4.7914C57.1697 2.5411 50.9383 3.35409 46.4125 6.60378C42.1316 9.67758 40.8892 13.846 43.4194 16.1926L37.512 20.4343L36.3165 19.5758L8.08421 39.8474L11.4808 42.2862L39.7132 22.0146L38.5178 21.1562L44.4251 16.9146C47.6934 18.7314 53.4988 17.8396 57.7797 14.7658ZM37.6176 22.0754L11.5657 40.7814L10.1804 39.7867L36.2323 21.0807L37.6176 22.0754ZM44.9784 15.7954C42.3991 13.9434 43.4938 10.1439 47.4185 7.32592C51.3431 4.50791 56.6346 3.72186 59.2139 5.57387C61.7934 7.42598 60.6988 11.2255 56.7741 14.0435C52.8495 16.8615 47.5578 17.6475 44.9784 15.7954Z" fill="white"/>
<path d="M20.0731 6.60004C15.5536 3.34569 9.3307 2.53163 6.20105 4.78515C3.07141 7.03867 4.2021 11.5194 8.72166 14.7737C12.9966 17.8519 18.794 18.7453 22.0576 16.9259L27.9567 21.1736L26.7628 22.0333L54.9559 42.334L58.3478 39.8916L30.1545 19.5909L28.9608 20.4504L23.0616 16.2027C25.5885 13.8526 24.3481 9.67824 20.0731 6.60004ZM30.2392 21.0978L56.2549 39.8306L54.8715 40.8266L28.8558 22.0938L30.2392 21.0978ZM21.5051 15.8049C18.9293 17.6596 13.6452 16.8724 9.72599 14.0503C5.80679 11.2283 4.71357 7.42341 7.28929 5.56874C9.86516 3.71398 15.1494 4.50106 19.0686 7.32311C22.9878 10.1452 24.0809 13.9501 21.5051 15.8049Z" fill="white"/>
</svg>
