<svg width="66" height="45" viewBox="0 0 66 45" fill="none" xmlns="http://www.w3.org/2000/svg">
<path d="M57.7797 14.323C62.3055 11.0761 63.4377 6.60545 60.3037 4.35705C57.1697 2.10865 50.9383 2.92096 46.4125 6.1679C42.1316 9.23911 40.8892 13.404 43.4194 15.7487L37.5121 19.9867L36.3165 19.129L8.08425 39.3835L11.4809 41.8203L39.7133 21.5657L38.5178 20.7081L44.4252 16.47C47.6934 18.2853 53.4988 17.3942 57.7797 14.323ZM37.6176 21.6265L11.5658 40.3167L10.1805 39.3229L36.2323 20.6327L37.6176 21.6265ZM44.9784 15.3517C42.3991 13.5013 43.4938 9.70506 47.4185 6.88943C51.3431 4.0738 56.6346 3.28841 59.2139 5.13886C61.7934 6.98941 60.6987 10.7857 56.7741 13.6014C52.8495 16.417 47.5579 17.2023 44.9784 15.3517Z" fill="white"/>
<path d="M20.0731 6.16289C15.5535 2.91132 9.3307 2.09795 6.20105 4.34955C3.0714 6.60115 4.20209 11.078 8.72166 14.3296C12.9966 17.4052 18.794 18.2978 22.0576 16.48L27.9567 20.7241L26.7628 21.583L54.9559 41.8663L58.3478 39.4261L30.1545 19.1426L28.9607 20.0015L23.0616 15.7574C25.5885 13.4093 24.3481 9.23847 20.0731 6.16289ZM30.2391 20.6482L56.2549 39.3651L54.8715 40.3603L28.8558 21.6435L30.2391 20.6482ZM21.505 15.3599C18.9293 17.213 13.6452 16.4265 9.72599 13.6068C5.80678 10.7872 4.71357 6.98556 7.28929 5.13248C9.86515 3.27929 15.1494 4.0657 19.0686 6.88535C22.9878 9.70499 24.0809 13.5067 21.505 15.3599Z" fill="white"/>
</svg>
